<?xml version="1.0" encoding="utf-8"?>
<!-- Generator: Adobe Illustrator 22.1.0, SVG Export Plug-In . SVG Version: 6.00 Build 0)  -->
<svg version="1.1" id="Layer_1" xmlns="http://www.w3.org/2000/svg" xmlns:xlink="http://www.w3.org/1999/xlink" x="0px" y="0px"
	 viewBox="0 0 263.3 76.4" style="enable-background:new 0 0 263.3 76.4;" xml:space="preserve">
<style type="text/css">
	.st0{fill:#E30613;}
	.st1{fill:#FFFFFF;}
	.st2{fill:#FFFFFF;stroke:#FFFFFF;stroke-width:0.5342;stroke-miterlimit:10;}
</style>
<g>
	<g>
		<g>
			<g>
				<g>
					<path class="st0" d="M45.9,47c0.9-0.2,1.6-1.1,1.4-2.1v3.8L43.9,31c-0.2-4.8-1.1-5.4-2.1-5.2l-17.2,3.5v0
						c-1,0.2-1.6,1.1-1.4,2.1l6.8,35.4c0.6,2.9-1.3,5.8-4.1,6.4v0l-15.5,3.2L0.2,23.3c-1.1-5.9,2.6-11.6,8.3-12.7L60.1,0l10.3,53.1
						c1.1,5.9-2.6,11.6-8.3,12.7v0L41.4,70l-3.1-15.9h0c-0.6-2.9,1.3-5.8,4.1-6.4l3.6-0.7L45.9,47z"/>
				</g>
			</g>
		</g>
		<rect x="83.7" y="46.6" class="st1" width="179.7" height="0.9"/>
		<rect x="83.7" y="57.8" class="st1" width="179.7" height="0.9"/>
		<g>
			<path class="st1" d="M123.2,68.8l-0.7-1.4h-4.1l-0.7,1.4h-1.1l3.2-6.2h1.3l3.2,6.2H123.2z M120.4,63.5l-1.6,3h3.1L120.4,63.5z"/>
			<path class="st1" d="M129.5,63.3c-1.3,0-1.9,0.3-1.9,0.8c0,0.3,0.2,0.5,0.5,0.6c0.7,0.2,1.7,0.2,2.9,0.3c1.5,0.2,2.2,0.7,2.2,1.8
				c0,1.3-1.2,2.1-3.3,2.1c-1.5,0-2.7-0.3-3.6-1.1l0.6-0.7c1,0.6,2,0.9,3.1,0.9c1.4,0,2.2-0.4,2.2-1.1c0-0.9-1-0.9-2.8-1
				c-1.9-0.1-2.8-0.4-2.8-1.6c0-1.2,1.1-1.9,3.1-1.9c1.3,0,2.4,0.3,3.3,0.9l-0.6,0.7C131.3,63.6,130.4,63.3,129.5,63.3z"/>
			<path class="st1" d="M142.2,68.8v-2.8h-4.9v2.8h-1v-6.2h1v2.5h4.9v-2.5h1v6.2H142.2z"/>
			<path class="st1" d="M152.5,68.8l-1.6-2.4h-3.1v2.4h-1v-6.2h4.8c1.3,0,2,0.8,2,2c0,1.1-0.7,1.7-1.6,1.8l1.6,2.4H152.5z
				 M152.5,64.5c0-0.7-0.4-1-1.3-1h-3.5v2h3.6C152.1,65.5,152.5,65.2,152.5,64.5z"/>
			<path class="st1" d="M162.4,68.8l-0.7-1.4h-4.1l-0.7,1.4h-1.1l3.2-6.2h1.3l3.2,6.2H162.4z M159.7,63.5l-1.6,3h3.1L159.7,63.5z"/>
			<path class="st1" d="M167.2,63.5v1.6h3.6v0.9h-3.6v2.8h-1v-6.2h6.1v0.9H167.2z"/>
			<path class="st1" d="M184.9,68.8v-2.8H180v2.8h-1v-6.2h1v2.5h4.9v-2.5h1v6.2H184.9z"/>
			<path class="st1" d="M195.1,68.8l-0.7-1.4h-4.1l-0.7,1.4h-1.1l3.2-6.2h1.3l3.2,6.2H195.1z M192.4,63.5l-1.6,3h3.1L192.4,63.5z"/>
			<path class="st1" d="M204.6,68.8l-1.6-2.4h-3.1v2.4h-1v-6.2h4.8c1.3,0,2,0.8,2,2c0,1.1-0.7,1.7-1.6,1.8l1.6,2.4H204.6z
				 M204.7,64.5c0-0.7-0.4-1-1.3-1h-3.5v2h3.6C204.3,65.5,204.7,65.2,204.7,64.5z"/>
			<path class="st1" d="M208.8,68.8v-6.2h1v6.2H208.8z"/>
			<path class="st1" d="M220.7,65.8c0,0.9-0.3,1.6-1,2.2c-0.6,0.5-1.4,0.8-2.3,0.8h-4v-6.2h3.8C219.4,62.6,220.7,63.8,220.7,65.8z
				 M219.6,65.7c0-1.3-0.9-2.2-2.3-2.2h-2.9v4.4h3.1C218.7,67.9,219.6,67,219.6,65.7z"/>
			<path class="st1" d="M227.2,66.4v2.5h-1v-2.5l-3.3-3.8h1.3l2.6,2.9l2.6-2.9h1.3L227.2,66.4z"/>
		</g>
	</g>
	<g>
		<path class="st1" d="M84.1,39.6c1.5-7,2.8-13.8,4.3-20.8c3,0,5.9,0,8.9,0c4.8,0,6.5,3.9,5.6,7.8c-0.8,3.8-3.2,7.6-9,7.6h-3.4
			l-1.1,5.4H84.1z M94.8,29.5c1.6,0,2.7-1.5,3-3c0.3-1.5-0.1-2.9-1.6-2.9h-3.7l-1.3,6H94.8z"/>
		<path class="st1" d="M120.3,38.9l-0.2,0.7h-5.5l-2.3-6.5h-2.8l-1.4,6.5H103c1.5-7,2.8-13.8,4.3-20.8c3,0,5.9,0,8.9,0
			c4.9,0,6.5,3.7,5.7,7.4c-0.5,2.4-1.6,4.5-4.2,6.1L120.3,38.9z M114.2,28.6c1.7,0,2.8-1.7,2.8-3.1c0-1-0.5-2-1.7-2h-3.7l-1.1,5.1
			H114.2z"/>
		<path class="st1" d="M132.1,40c-4.6,0-8.4-2.9-8.4-8.5c0-8.5,6.9-13.1,12.9-13.1c4.5,0,8.3,2.9,8.3,8.6C145,34.4,140,40,132.1,40z
			 M133.2,34.8c2.9,0,6.4-2.4,6.4-6.9c0-2.8-1.8-4.4-4-4.4c-3,0-6.1,2.3-6.4,6.9C129,33.5,131.1,34.8,133.2,34.8z"/>
		<path class="st1" d="M168.1,18.8h1.9l-4.3,20.8h-5.3l2-9.6l-5.3,4.6h-0.6l-3.2-5l-2.1,10h-5.3l4.3-20.8h1.9l6.2,9L168.1,18.8z"/>
		<path class="st1" d="M179.3,40c-4.6,0-8.4-2.9-8.4-8.5c0-8.5,6.9-13.1,12.9-13.1c4.5,0,8.3,2.9,8.3,8.6
			C192.2,34.4,187.2,40,179.3,40z M180.4,34.8c2.9,0,6.4-2.4,6.4-6.9c0-2.8-1.8-4.4-4-4.4c-3,0-6.1,2.3-6.4,6.9
			C176.1,33.5,178.2,34.8,180.4,34.8z"/>
		<path class="st1" d="M194.2,23.6c0.3-1.6,0.7-3.1,1-4.7h15c-0.3,1.6-0.7,3.2-1,4.7h-4.9l-3.3,16h-5.1l3.3-16H194.2z"/>
		<path class="st1" d="M225.5,18.8l-0.9,4.5h-7.3l-0.7,3.2h6.8l-1,4.7h-6.8l-0.8,3.6h7.6l-1,4.7h-12.9l4.3-20.8H225.5z"/>
		<path class="st1" d="M242.4,38.9l-0.2,0.7h-5.5l-2.3-6.5h-2.8l-1.4,6.5h-5.3c1.5-7,2.8-13.8,4.3-20.8c3,0,5.9,0,8.9,0
			c4.9,0,6.5,3.7,5.7,7.4c-0.5,2.4-1.6,4.5-4.2,6.1L242.4,38.9z M236.2,28.6c1.7,0,2.8-1.7,2.8-3.1c0-1-0.5-2-1.7-2h-3.7l-1.1,5.1
			H236.2z"/>
		<path class="st1" d="M250.2,33.2c-0.3,1.4,1.2,2.1,2.8,2.1c1.6,0,3.6-0.8,3.6-2.3c0-1.6-2-1.7-3.3-1.8c-3.2-0.2-6.3-1.5-6.3-5
			c0-5.4,4.7-7.9,9.4-7.9c3.9,0,7.4,2.3,6.3,6.8h-4.9c0.1-1.5-1.1-2.1-2.5-2.1c-1.5,0-3,0.9-3,2.3c0,1.1,1,1.4,2.7,1.6
			c3.8,0.4,6.9,1.2,6.9,5.1c0,5.5-4.4,8-9.8,8c-4.3,0-7.9-2.2-6.9-6.9H250.2z"/>
	</g>
	<g>
		<path class="st2" d="M86,55.2c-0.1,0.2-0.1,0.3-0.1,0.6h-2.2c0.1-0.2,0.1-0.3,0.1-0.6h0.8l1-4.9h-0.7c0.1-0.2,0.1-0.3,0.1-0.6h2.1
			C87,50,87,50.1,86.9,50.3h-0.7l-1,4.9H86z"/>
		<path class="st2" d="M98.6,51.2c-0.1,0.6-0.2,1.1-0.3,1.6l-0.6,2.9h-0.7l1.2-6h0.3l2,4.5c0.1-0.6,0.2-1.1,0.3-1.7l0.6-2.8h0.6
			l-1.2,6h-0.2L98.6,51.2z"/>
		<path class="st2" d="M116.7,49.7l-0.2,0.6h-1.4l-1.1,5.4h-0.6l1.1-5.4h-1.4l0.2-0.6H116.7z"/>
		<path class="st2" d="M127.9,52.3h2c-0.1,0.2-0.1,0.4-0.2,0.6h-2l-0.4,2.1h2.2c-0.1,0.2-0.1,0.5-0.2,0.7h-2.8l1.2-6h2.8l-0.2,0.6
			h-2.1L127.9,52.3z"/>
		<path class="st2" d="M143.8,55.7l-0.8-2.2h-1.2l-0.5,2.2h-0.6l1.2-6h1.8c1,0,1.4,0.9,1.3,1.9c-0.1,1-0.7,1.5-1.4,1.8l0.8,2.2
			l0,0.1H143.8z M143.2,52.9c0.7,0,1.3-0.6,1.3-1.6c0-0.6-0.3-1-0.8-1h-1.2c-0.2,0.9-0.3,1.7-0.5,2.6L143.2,52.9z"/>
		<path class="st2" d="M157.1,51.2c-0.1,0.6-0.2,1.1-0.3,1.6l-0.6,2.9h-0.7l1.2-6h0.3l2,4.5c0.1-0.6,0.2-1.1,0.3-1.7l0.6-2.8h0.6
			l-1.2,6h-0.2L157.1,51.2z"/>
		<path class="st2" d="M174.5,55.7l-0.2-1.5H172l-0.8,1.5h-0.7l0-0.1l3.4-6h0.4l0.9,6l0,0.1H174.5z M173.9,50.7l-0.9,1.9l-0.6,1.1
			h1.9l-0.2-1.1L173.9,50.7z"/>
		<path class="st2" d="M189.9,49.7l-0.2,0.6h-1.4l-1.1,5.4h-0.6l1.1-5.4h-1.4l0.2-0.6H189.9z"/>
		<path class="st2" d="M201.7,55.2c-0.1,0.2-0.1,0.3-0.1,0.6h-2.2c0.1-0.2,0.1-0.3,0.1-0.6h0.8l1-4.9h-0.7c0.1-0.2,0.1-0.3,0.1-0.6
			h2.1c-0.1,0.2-0.1,0.3-0.1,0.6h-0.7l-1,4.9H201.7z"/>
		<path class="st2" d="M212.9,53.5c0-1.7,1.2-3.8,3.1-3.8c1.3,0,1.9,1.1,1.9,2.3c0,1.7-1.1,3.9-3.1,3.9
			C213.5,55.8,212.9,54.7,212.9,53.5z M217.2,52.1c0-1-0.4-1.8-1.3-1.8c-1.4,0-2.3,1.7-2.3,3.1c0,0.9,0.4,1.7,1.3,1.7
			C216.3,55.2,217.2,53.4,217.2,52.1z"/>
		<path class="st2" d="M230,51.2c-0.1,0.6-0.2,1.1-0.3,1.6l-0.6,2.9h-0.7l1.2-6h0.3l2,4.5c0.1-0.6,0.2-1.1,0.3-1.7l0.6-2.8h0.6
			l-1.2,6H232L230,51.2z"/>
		<path class="st2" d="M247.4,55.7l-0.2-1.5h-2.3l-0.8,1.5h-0.7l0-0.1l3.4-6h0.4l0.9,6l0,0.1H247.4z M246.8,50.7l-0.9,1.9l-0.6,1.1
			h1.9l-0.2-1.1L246.8,50.7z"/>
		<path class="st2" d="M262,55.1c-0.1,0.2-0.1,0.4-0.2,0.6h-2.8l1.2-6h0.6l-1.1,5.4H262z"/>
	</g>
</g>
</svg>
