<?xml version="1.0" encoding="utf-8"?>
<!-- Generator: Adobe Illustrator 22.1.0, SVG Export Plug-In . SVG Version: 6.00 Build 0)  -->
<svg version="1.1" id="Layer_1" xmlns="http://www.w3.org/2000/svg" xmlns:xlink="http://www.w3.org/1999/xlink" x="0px" y="0px"
	 viewBox="0 0 230.6 177.8" style="enable-background:new 0 0 230.6 177.8;" xml:space="preserve">
<style type="text/css">
	.st0{fill:#E30613;}
	.st1{fill:#FFFFFF;}
	.st2{fill:#FFFFFF;stroke:#FFFFFF;stroke-width:0.5342;stroke-miterlimit:10;}
</style>
<g>
	<g>
		<g>
			<g>
				<g>
					<path class="st0" d="M129.3,59.5c1.2-0.2,2-1.4,1.8-2.7v0l-4.4-22.4c-0.2-1.2-1.4-2-2.7-1.8l-22.4,4.4v0
						c-1.2,0.2-2,1.4-1.8,2.7l8.9,44.7c0.7,3.7-1.7,7.3-5.4,8v0l-20.1,4L69.9,29.4c-1.5-7.4,3.3-14.6,10.8-16.1L147.7,0l13.3,67.1
						c1.5,7.4-3.3,14.6-10.8,16.1v0l-26.8,5.3l-4-20.1h0c-0.7-3.7,1.7-7.3,5.4-8l4.7-0.9L129.3,59.5z"/>
				</g>
			</g>
		</g>
		<rect x="0.3" y="149.9" class="st1" width="230.3" height="1.1"/>
		<rect x="0.3" y="163.9" class="st1" width="230.3" height="1.1"/>
		<g>
			<path class="st1" d="M51,177.7l-0.9-1.7h-5.2l-0.9,1.7h-1.4l4.1-7.8h1.6l4.1,7.8H51z M47.5,171l-2,3.8h4L47.5,171z"/>
			<path class="st1" d="M59.1,170.8c-1.6,0-2.5,0.4-2.5,1.1c0,0.4,0.2,0.6,0.7,0.7c0.9,0.3,2.1,0.2,3.7,0.4c1.9,0.2,2.9,0.9,2.9,2.2
				c0,1.6-1.5,2.6-4.2,2.6c-2,0-3.5-0.4-4.6-1.3l0.7-0.9c1.2,0.8,2.5,1.1,3.9,1.1c1.8,0,2.8-0.5,2.8-1.4c0-1.1-1.3-1.1-3.6-1.3
				c-2.4-0.2-3.6-0.5-3.6-2c0-1.5,1.4-2.4,3.9-2.4c1.7,0,3.1,0.4,4.2,1.1l-0.8,0.9C61.4,171.1,60.3,170.8,59.1,170.8z"/>
			<path class="st1" d="M75.3,177.7v-3.4h-6.2v3.4h-1.3v-7.8h1.3v3.2h6.2v-3.2h1.3v7.8H75.3z"/>
			<path class="st1" d="M88.5,177.7l-2.1-3h-3.9v3h-1.3v-7.8h6.1c1.6,0,2.6,0.9,2.6,2.5c0,1.4-0.9,2.1-2,2.3l2.1,3H88.5z
				 M88.6,172.3c0-0.9-0.5-1.3-1.6-1.3h-4.5v2.5h4.7C88.1,173.5,88.6,173.1,88.6,172.3z"/>
			<path class="st1" d="M101.3,177.7l-0.9-1.7h-5.2l-0.9,1.7h-1.4l4.1-7.8h1.6l4.1,7.8H101.3z M97.7,171l-2,3.8h4L97.7,171z"/>
			<path class="st1" d="M107.4,171v2h4.6v1.2h-4.6v3.4h-1.3v-7.8h7.9v1.2H107.4z"/>
			<path class="st1" d="M130.1,177.7v-3.4h-6.2v3.4h-1.3v-7.8h1.3v3.2h6.2v-3.2h1.3v7.8H130.1z"/>
			<path class="st1" d="M143.2,177.7l-0.9-1.7h-5.2l-0.9,1.7h-1.4l4.1-7.8h1.6l4.1,7.8H143.2z M139.7,171l-2,3.8h4L139.7,171z"/>
			<path class="st1" d="M155.4,177.7l-2.1-3h-3.9v3H148v-7.8h6.1c1.6,0,2.6,0.9,2.6,2.5c0,1.4-0.9,2.1-2,2.3l2.1,3H155.4z
				 M155.5,172.3c0-0.9-0.5-1.3-1.6-1.3h-4.5v2.5h4.7C154.9,173.5,155.5,173.1,155.5,172.3z"/>
			<path class="st1" d="M160.8,177.7v-7.8h1.3v7.8H160.8z"/>
			<path class="st1" d="M176,173.8c0,1.1-0.4,2.1-1.3,2.8c-0.8,0.7-1.8,1-2.9,1h-5.2v-7.8h4.9C174.3,169.9,176,171.4,176,173.8z
				 M174.6,173.8c0-1.7-1.2-2.8-2.9-2.8h-3.7v5.4h4C173.4,176.5,174.6,175.4,174.6,173.8z"/>
			<path class="st1" d="M184.3,174.6v3.1H183v-3.1l-4.3-4.7h1.6l3.3,3.6l3.3-3.6h1.6L184.3,174.6z"/>
		</g>
	</g>
	<g>
		<path class="st1" d="M0.8,141.2c1.9-8.7,3.6-17.2,5.5-25.9c3.8,0,7.6,0,11.4,0c6.2,0,8.3,4.8,7.2,9.7c-1.1,4.7-4.1,9.5-11.6,9.5H9
			l-1.4,6.7H0.8z M14.7,128.6c2.1,0,3.5-1.9,3.9-3.8c0.4-1.8-0.1-3.7-2-3.7h-4.8l-1.6,7.4H14.7z"/>
		<path class="st1" d="M47.3,140.4l-0.2,0.9h-7l-2.9-8.1h-3.6l-1.7,8.1h-6.8c1.9-8.7,3.6-17.2,5.5-25.9c3.8,0,7.6,0,11.4,0
			c6.3,0,8.4,4.6,7.4,9.2c-0.7,3-2,5.7-5.4,7.5L47.3,140.4z M39.4,127.6c2.2,0,3.6-2.1,3.6-3.9c0-1.3-0.6-2.5-2.2-2.5h-4.7l-1.4,6.4
			H39.4z"/>
		<path class="st1" d="M62.4,141.7c-5.8,0-10.7-3.7-10.7-10.6c0-10.7,8.9-16.3,16.6-16.3c5.7,0,10.7,3.7,10.7,10.7
			C79,134.7,72.6,141.7,62.4,141.7z M63.9,135.3c3.7,0,8.2-3,8.2-8.5c0-3.6-2.3-5.5-5.1-5.5c-3.8,0-7.8,2.9-8.2,8.5
			C58.4,133.6,61.1,135.3,63.9,135.3z"/>
		<path class="st1" d="M108.6,115.2h2.4l-5.5,26h-6.8l2.6-11.9l-6.8,5.8h-0.8l-4.1-6.3l-2.7,12.4h-6.8l5.5-26h2.4l7.9,11.2
			L108.6,115.2z"/>
		<path class="st1" d="M122.9,141.7c-5.8,0-10.7-3.7-10.7-10.6c0-10.7,8.9-16.3,16.6-16.3c5.7,0,10.7,3.7,10.7,10.7
			C139.4,134.7,133,141.7,122.9,141.7z M124.3,135.3c3.7,0,8.2-3,8.2-8.5c0-3.6-2.3-5.5-5.1-5.5c-3.8,0-7.8,2.9-8.2,8.5
			C118.8,133.6,121.5,135.3,124.3,135.3z"/>
		<path class="st1" d="M142.1,121.2c0.4-2,0.9-3.9,1.3-5.9h19.2c-0.4,2-0.9,4-1.3,5.9H155l-4.3,20h-6.5l4.3-20H142.1z"/>
		<path class="st1" d="M182.2,115.3l-1.2,5.5h-9.4l-0.9,4h8.7l-1.3,5.9h-8.7l-1,4.5h9.7l-1.2,5.8h-16.5l5.5-25.9H182.2z"/>
		<path class="st1" d="M203.7,140.4l-0.2,0.9h-7l-2.9-8.1h-3.6l-1.7,8.1h-6.8c1.9-8.7,3.6-17.2,5.5-25.9c3.8,0,7.6,0,11.4,0
			c6.3,0,8.4,4.6,7.4,9.2c-0.7,3-2,5.7-5.4,7.5L203.7,140.4z M195.8,127.6c2.2,0,3.6-2.1,3.6-3.9c0-1.3-0.6-2.5-2.2-2.5h-4.7
			l-1.4,6.4H195.8z"/>
		<path class="st1" d="M213.9,133.3c-0.4,1.8,1.5,2.7,3.6,2.7c2.1,0,4.6-1,4.6-2.9c0-2-2.6-2.1-4.3-2.3c-4.1-0.3-8.1-1.9-8.1-6.2
			c0-6.7,6-9.8,12.1-9.8c5,0,9.4,2.8,8.1,8.5h-6.3c0.2-1.8-1.4-2.6-3.2-2.6c-1.9,0-3.9,1.1-3.9,2.8c0,1.4,1.3,1.7,3.5,2
			c4.8,0.5,8.9,1.5,8.9,6.4c0,6.9-5.6,10-12.6,10c-5.5,0-10.1-2.7-8.8-8.5H213.9z"/>
	</g>
	<g>
		<path class="st2" d="M3.3,160.6c-0.1,0.3-0.1,0.4-0.2,0.7H0.3c0.1-0.3,0.1-0.4,0.2-0.7h1l1.2-6.1H1.8c0.1-0.3,0.1-0.4,0.2-0.7h2.7
			c-0.1,0.3-0.1,0.4-0.2,0.7H3.6l-1.3,6.1H3.3z"/>
		<path class="st2" d="M19.5,155.7c-0.1,0.7-0.2,1.3-0.4,2.1l-0.7,3.6h-0.8l1.6-7.5h0.3l2.6,5.6c0.1-0.8,0.2-1.3,0.4-2.1l0.7-3.5H24
			l-1.6,7.5h-0.3L19.5,155.7z"/>
		<path class="st2" d="M42.7,153.9l-0.2,0.8h-1.8l-1.4,6.7h-0.8l1.4-6.7h-1.8l0.2-0.8H42.7z"/>
		<path class="st2" d="M57,157.1h2.6c-0.1,0.3-0.1,0.5-0.2,0.8h-2.6l-0.5,2.6h2.8c-0.1,0.3-0.1,0.6-0.2,0.8h-3.6l1.6-7.5h3.5
			l-0.2,0.8h-2.7L57,157.1z"/>
		<path class="st2" d="M77.4,161.3l-1.1-2.8h-1.5l-0.6,2.8h-0.8l1.6-7.5h2.3c1.2,0,1.8,1.1,1.6,2.4c-0.2,1.3-0.9,1.9-1.8,2.2
			l1.1,2.7l0,0.1H77.4z M76.6,157.8c0.8,0,1.6-0.8,1.6-2c0-0.7-0.3-1.2-1-1.2h-1.6c-0.2,1.1-0.4,2.1-0.7,3.2L76.6,157.8z"/>
		<path class="st2" d="M94.5,155.7c-0.1,0.7-0.2,1.3-0.4,2.1l-0.7,3.6h-0.8l1.6-7.5h0.3l2.6,5.6c0.1-0.8,0.2-1.3,0.4-2.1l0.7-3.5H99
			l-1.6,7.5h-0.3L94.5,155.7z"/>
		<path class="st2" d="M116.8,161.3l-0.3-1.9h-2.9l-1.1,1.9h-0.9l0-0.1l4.3-7.4h0.5l1.1,7.4l0,0.1H116.8z M116,155.1l-1.2,2.3
			l-0.8,1.4h2.4l-0.2-1.4L116,155.1z"/>
		<path class="st2" d="M136.5,153.9l-0.2,0.8h-1.8l-1.4,6.7h-0.8l1.4-6.7h-1.8l0.2-0.8H136.5z"/>
		<path class="st2" d="M151.6,160.6c-0.1,0.3-0.1,0.4-0.2,0.7h-2.8c0.1-0.3,0.1-0.4,0.2-0.7h1l1.3-6.1h-0.9c0.1-0.3,0.1-0.4,0.2-0.7
			h2.7c-0.1,0.3-0.1,0.4-0.2,0.7h-0.9l-1.3,6.1H151.6z"/>
		<path class="st2" d="M166,158.5c0-2.2,1.5-4.7,3.9-4.7c1.6,0,2.4,1.3,2.4,2.9c0,2.2-1.5,4.8-3.9,4.8
			C166.7,161.4,166,160.1,166,158.5z M171.5,156.8c0-1.2-0.5-2.2-1.7-2.2c-1.8,0-3,2.2-3,3.9c0,1.2,0.5,2.1,1.6,2.1
			C170.3,160.6,171.5,158.5,171.5,156.8z"/>
		<path class="st2" d="M187.9,155.7c-0.1,0.7-0.2,1.3-0.4,2.1l-0.7,3.6h-0.8l1.6-7.5h0.3l2.6,5.6c0.1-0.8,0.2-1.3,0.4-2.1l0.7-3.5
			h0.8l-1.6,7.5h-0.3L187.9,155.7z"/>
		<path class="st2" d="M210.2,161.3l-0.3-1.9H207l-1.1,1.9h-0.9l0-0.1l4.3-7.4h0.5l1.1,7.4l0,0.1H210.2z M209.4,155.1l-1.2,2.3
			l-0.8,1.4h2.4l-0.2-1.4L209.4,155.1z"/>
		<path class="st2" d="M228.9,160.5c-0.1,0.3-0.1,0.5-0.2,0.8h-3.5l1.6-7.5h0.8l-1.4,6.7H228.9z"/>
	</g>
</g>
</svg>
