<?xml version="1.0" standalone="no"?>
<!DOCTYPE svg PUBLIC "-//W3C//DTD SVG 20010904//EN"
 "http://www.w3.org/TR/2001/REC-SVG-20010904/DTD/svg10.dtd">
<svg version="1.0" xmlns="http://www.w3.org/2000/svg"
 width="20.000000pt" height="30.000000pt" viewBox="0 0 50.000000 50.000000"
 preserveAspectRatio="xMidYMid meet">

<g transform="translate(0.000000,50.000000) scale(0.100000,-0.100000)"
fill="#ff0000" stroke="none">
<path d="M211 480 c-45 -11 -100 -67 -111 -114 -5 -22 -4 -52 2 -74 10 -40 96
-201 128 -242 l20 -25 20 25 c32 41 118 202 128 242 6 22 7 52 2 74 -9 37 -61
100 -89 108 -43 11 -69 13 -100 6z m96 -92 c51 -48 15 -138 -56 -138 -47 0
-81 32 -81 79 0 72 84 109 137 59z"/>
<path d="M226 354 c-9 -8 -16 -19 -16 -24 0 -11 29 -40 39 -40 9 0 41 34 41
43 0 4 -7 7 -15 7 -8 0 -15 7 -15 15 0 19 -14 19 -34 -1z"/>
</g>
</svg>
